<svg width="13" height="21" viewBox="0 0 13 21" fill="none" xmlns="http://www.w3.org/2000/svg">
<path d="M12.9621 10.5C12.9628 11.0702 12.7179 11.613 12.29 11.9898L2.68086 20.4434C2.01861 20.9991 1.03385 20.9245 0.462885 20.2754C-0.108075 19.6262 -0.0563868 18.64 0.579302 18.0541L8.98211 10.662C9.02877 10.6211 9.05553 10.5621 9.05553 10.5C9.05553 10.4379 9.02877 10.3789 8.98211 10.338L0.579302 2.94592C-0.0563868 2.36001 -0.108075 1.37378 0.462885 0.724631C1.03385 0.0754828 2.01861 0.000863789 2.68086 0.556567L12.2865 9.00762C12.7155 9.38507 12.9615 9.92864 12.9621 10.5Z" fill="black"/>
</svg>
