<svg width="24" height="24" viewBox="0 0 24 24" fill="none" xmlns="http://www.w3.org/2000/svg">
<path d="M7.19702 11.6797C7.1965 11.2559 7.37851 10.8525 7.69653 10.5724L14.8383 4.28944C15.3305 3.87643 16.0624 3.93189 16.4867 4.41435C16.9111 4.89682 16.8727 5.62981 16.4002 6.06527L10.155 11.5593C10.1203 11.5897 10.1005 11.6335 10.1005 11.6797C10.1005 11.7258 10.1203 11.7697 10.155 11.8001L16.4002 17.294C16.729 17.5699 16.8825 18.0022 16.8014 18.4236C16.7204 18.845 16.4174 19.1894 16.0098 19.3236C15.6022 19.4578 15.1538 19.3607 14.8383 19.0699L7.6991 12.7888C7.3803 12.5083 7.19743 12.1043 7.19702 11.6797Z" fill="black"/>
<mask id="mask0" mask-type="alpha" maskUnits="userSpaceOnUse" x="7" y="4" width="10" height="16">
<path d="M7.19702 11.6797C7.1965 11.2559 7.37851 10.8525 7.69653 10.5724L14.8383 4.28944C15.3305 3.87643 16.0624 3.93189 16.4867 4.41435C16.9111 4.89682 16.8727 5.62981 16.4002 6.06527L10.155 11.5593C10.1203 11.5897 10.1005 11.6335 10.1005 11.6797C10.1005 11.7258 10.1203 11.7697 10.155 11.8001L16.4002 17.294C16.729 17.5699 16.8825 18.0022 16.8014 18.4236C16.7204 18.845 16.4174 19.1894 16.0098 19.3236C15.6022 19.4578 15.1538 19.3607 14.8383 19.0699L7.6991 12.7888C7.3803 12.5083 7.19743 12.1043 7.19702 11.6797Z" fill="white"/>
</mask>
<g mask="url(#mask0)">
</g>
</svg>
