<svg width="117" height="37" viewBox="0 0 117 37" fill="none" xmlns="http://www.w3.org/2000/svg">
<rect width="117" height="30" fill="#FF6200"/>
<path d="M110 37V30H117L110 37Z" fill="#7B3001"/>
<path d="M25.864 17.084H19.564L18.322 20H15.91L21.58 7.4H23.884L29.572 20H27.124L25.864 17.084ZM25.09 15.248L22.714 9.74L20.356 15.248H25.09ZM33.6605 20.126C32.8805 20.126 32.1185 20.024 31.3745 19.82C30.6305 19.616 30.0365 19.358 29.5925 19.046L30.4565 17.336C30.8885 17.624 31.4045 17.858 32.0045 18.038C32.6165 18.206 33.2165 18.29 33.8045 18.29C35.1485 18.29 35.8205 17.936 35.8205 17.228C35.8205 16.892 35.6465 16.658 35.2985 16.526C34.9625 16.394 34.4165 16.268 33.6605 16.148C32.8685 16.028 32.2205 15.89 31.7165 15.734C31.2245 15.578 30.7925 15.308 30.4205 14.924C30.0605 14.528 29.8805 13.982 29.8805 13.286C29.8805 12.374 30.2585 11.648 31.0145 11.108C31.7825 10.556 32.8145 10.28 34.1105 10.28C34.7705 10.28 35.4305 10.358 36.0905 10.514C36.7505 10.658 37.2905 10.856 37.7105 11.108L36.8465 12.818C36.0305 12.338 35.1125 12.098 34.0925 12.098C33.4325 12.098 32.9285 12.2 32.5805 12.404C32.2445 12.596 32.0765 12.854 32.0765 13.178C32.0765 13.538 32.2565 13.796 32.6165 13.952C32.9885 14.096 33.5585 14.234 34.3265 14.366C35.0945 14.486 35.7245 14.624 36.2165 14.78C36.7085 14.936 37.1285 15.2 37.4765 15.572C37.8365 15.944 38.0165 16.472 38.0165 17.156C38.0165 18.056 37.6265 18.776 36.8465 19.316C36.0665 19.856 35.0045 20.126 33.6605 20.126ZM42.7442 20.126C41.9642 20.126 41.2022 20.024 40.4582 19.82C39.7142 19.616 39.1202 19.358 38.6762 19.046L39.5402 17.336C39.9722 17.624 40.4882 17.858 41.0882 18.038C41.7002 18.206 42.3002 18.29 42.8882 18.29C44.2322 18.29 44.9042 17.936 44.9042 17.228C44.9042 16.892 44.7302 16.658 44.3822 16.526C44.0462 16.394 43.5002 16.268 42.7442 16.148C41.9522 16.028 41.3042 15.89 40.8002 15.734C40.3082 15.578 39.8762 15.308 39.5042 14.924C39.1442 14.528 38.9642 13.982 38.9642 13.286C38.9642 12.374 39.3422 11.648 40.0982 11.108C40.8662 10.556 41.8982 10.28 43.1942 10.28C43.8542 10.28 44.5142 10.358 45.1742 10.514C45.8342 10.658 46.3742 10.856 46.7942 11.108L45.9302 12.818C45.1142 12.338 44.1962 12.098 43.1762 12.098C42.5162 12.098 42.0122 12.2 41.6642 12.404C41.3282 12.596 41.1602 12.854 41.1602 13.178C41.1602 13.538 41.3402 13.796 41.7002 13.952C42.0722 14.096 42.6422 14.234 43.4102 14.366C44.1782 14.486 44.8082 14.624 45.3002 14.78C45.7922 14.936 46.2122 15.2 46.5602 15.572C46.9202 15.944 47.1002 16.472 47.1002 17.156C47.1002 18.056 46.7102 18.776 45.9302 19.316C45.1502 19.856 44.0882 20.126 42.7442 20.126ZM48.8579 10.388H51.1079V20H48.8579V10.388ZM49.9919 8.804C49.5839 8.804 49.2419 8.678 48.9659 8.426C48.6899 8.162 48.5519 7.838 48.5519 7.454C48.5519 7.07 48.6899 6.752 48.9659 6.5C49.2419 6.236 49.5839 6.104 49.9919 6.104C50.3999 6.104 50.7419 6.23 51.0179 6.482C51.2939 6.722 51.4319 7.028 51.4319 7.4C51.4319 7.796 51.2939 8.132 51.0179 8.408C50.7539 8.672 50.4119 8.804 49.9919 8.804ZM63.421 10.388V18.542C63.421 21.926 61.693 23.618 58.237 23.618C57.313 23.618 56.437 23.498 55.609 23.258C54.781 23.03 54.097 22.694 53.557 22.25L54.565 20.558C54.985 20.906 55.513 21.182 56.149 21.386C56.797 21.602 57.451 21.71 58.111 21.71C59.167 21.71 59.941 21.47 60.433 20.99C60.925 20.51 61.171 19.778 61.171 18.794V18.29C60.787 18.71 60.319 19.028 59.767 19.244C59.215 19.46 58.609 19.568 57.949 19.568C57.037 19.568 56.209 19.376 55.465 18.992C54.733 18.596 54.151 18.044 53.719 17.336C53.299 16.628 53.089 15.818 53.089 14.906C53.089 13.994 53.299 13.19 53.719 12.494C54.151 11.786 54.733 11.24 55.465 10.856C56.209 10.472 57.037 10.28 57.949 10.28C58.645 10.28 59.275 10.394 59.839 10.622C60.415 10.85 60.895 11.198 61.279 11.666V10.388H63.421ZM58.291 17.66C59.143 17.66 59.839 17.408 60.379 16.904C60.931 16.388 61.207 15.722 61.207 14.906C61.207 14.102 60.931 13.448 60.379 12.944C59.839 12.44 59.143 12.188 58.291 12.188C57.427 12.188 56.719 12.44 56.167 12.944C55.627 13.448 55.357 14.102 55.357 14.906C55.357 15.722 55.627 16.388 56.167 16.904C56.719 17.408 57.427 17.66 58.291 17.66ZM71.653 10.28C72.865 10.28 73.837 10.634 74.569 11.342C75.301 12.05 75.667 13.1 75.667 14.492V20H73.417V14.78C73.417 13.94 73.219 13.31 72.823 12.89C72.427 12.458 71.863 12.242 71.131 12.242C70.303 12.242 69.649 12.494 69.169 12.998C68.689 13.49 68.449 14.204 68.449 15.14V20H66.199V10.388H68.341V11.63C68.713 11.186 69.181 10.85 69.745 10.622C70.309 10.394 70.945 10.28 71.653 10.28ZM87.4652 15.248C87.4652 15.404 87.4532 15.626 87.4292 15.914H79.8872C80.0192 16.622 80.3612 17.186 80.9132 17.606C81.4772 18.014 82.1732 18.218 83.0012 18.218C84.0572 18.218 84.9272 17.87 85.6112 17.174L86.8172 18.56C86.3852 19.076 85.8392 19.466 85.1792 19.73C84.5192 19.994 83.7752 20.126 82.9472 20.126C81.8912 20.126 80.9612 19.916 80.1572 19.496C79.3532 19.076 78.7292 18.494 78.2852 17.75C77.8532 16.994 77.6372 16.142 77.6372 15.194C77.6372 14.258 77.8472 13.418 78.2672 12.674C78.6992 11.918 79.2932 11.33 80.0492 10.91C80.8052 10.49 81.6572 10.28 82.6052 10.28C83.5412 10.28 84.3752 10.49 85.1072 10.91C85.8512 11.318 86.4272 11.9 86.8352 12.656C87.2552 13.4 87.4652 14.264 87.4652 15.248ZM82.6052 12.08C81.8852 12.08 81.2732 12.296 80.7692 12.728C80.2772 13.148 79.9772 13.712 79.8692 14.42H85.3232C85.2272 13.724 84.9332 13.16 84.4412 12.728C83.9492 12.296 83.3372 12.08 82.6052 12.08ZM98.8605 6.644V20H96.7005V18.758C96.3285 19.214 95.8665 19.556 95.3145 19.784C94.7745 20.012 94.1745 20.126 93.5145 20.126C92.5905 20.126 91.7565 19.922 91.0125 19.514C90.2805 19.106 89.7045 18.53 89.2845 17.786C88.8645 17.03 88.6545 16.166 88.6545 15.194C88.6545 14.222 88.8645 13.364 89.2845 12.62C89.7045 11.876 90.2805 11.3 91.0125 10.892C91.7565 10.484 92.5905 10.28 93.5145 10.28C94.1505 10.28 94.7325 10.388 95.2605 10.604C95.7885 10.82 96.2385 11.144 96.6105 11.576V6.644H98.8605ZM93.7845 18.2C94.3245 18.2 94.8105 18.08 95.2425 17.84C95.6745 17.588 96.0165 17.234 96.2685 16.778C96.5205 16.322 96.6465 15.794 96.6465 15.194C96.6465 14.594 96.5205 14.066 96.2685 13.61C96.0165 13.154 95.6745 12.806 95.2425 12.566C94.8105 12.314 94.3245 12.188 93.7845 12.188C93.2445 12.188 92.7585 12.314 92.3265 12.566C91.8945 12.806 91.5525 13.154 91.3005 13.61C91.0485 14.066 90.9225 14.594 90.9225 15.194C90.9225 15.794 91.0485 16.322 91.3005 16.778C91.5525 17.234 91.8945 17.588 92.3265 17.84C92.7585 18.08 93.2445 18.2 93.7845 18.2Z" fill="white"/>
</svg>
