<svg width="20" height="20" viewBox="0 0 20 20" fill="none" xmlns="http://www.w3.org/2000/svg">
<path d="M5.99756 9.73313C5.99712 9.38 6.1488 9.04379 6.41382 8.81042L12.3653 3.57462C12.7754 3.23044 13.3854 3.27666 13.739 3.67871C14.0926 4.08076 14.0606 4.69159 13.6669 5.05448L8.46257 9.6328C8.43367 9.65813 8.41709 9.6947 8.41709 9.73313C8.41709 9.77156 8.43367 9.80813 8.46257 9.83346L13.6669 14.4118C13.9408 14.6417 14.0688 15.0019 14.0012 15.3531C13.9337 15.7042 13.6812 15.9913 13.3415 16.1031C13.0018 16.2149 12.6282 16.134 12.3653 15.8916L6.41595 10.6574C6.15029 10.4237 5.9979 10.087 5.99756 9.73313Z" fill="white"/>
<mask id="mask0" mask-type="alpha" maskUnits="userSpaceOnUse" x="5" y="3" width="10" height="14">
<path d="M5.99756 9.73313C5.99712 9.38 6.1488 9.04379 6.41382 8.81042L12.3653 3.57462C12.7754 3.23044 13.3854 3.27666 13.739 3.67871C14.0926 4.08076 14.0606 4.69159 13.6669 5.05448L8.46257 9.6328C8.43367 9.65813 8.41709 9.6947 8.41709 9.73313C8.41709 9.77156 8.43367 9.80813 8.46257 9.83346L13.6669 14.4118C13.9408 14.6417 14.0688 15.0019 14.0012 15.3531C13.9337 15.7042 13.6812 15.9913 13.3415 16.1031C13.0018 16.2149 12.6282 16.134 12.3653 15.8916L6.41595 10.6574C6.15029 10.4237 5.9979 10.087 5.99756 9.73313Z" fill="white"/>
</mask>
<g mask="url(#mask0)">
</g>
</svg>
