<svg width="18" height="17" viewBox="0 0 18 17" fill="none" xmlns="http://www.w3.org/2000/svg">
<rect x="1.32849" y="1.66309" width="15.3429" height="14.0087" rx="1" stroke="white"/>
<path d="M4.66394 0.329102V3.66452" stroke="white"/>
<path d="M13.3359 0.329102V3.66452" stroke="white"/>
<path d="M1.32849 4.99854H16.6714" stroke="white"/>
<path d="M5.33093 12.6699H8.66635" stroke="white"/>
<path d="M6.99864 12.6694L6.99864 7.66626C6.99871 7.53806 6.92531 7.42117 6.80981 7.36555C6.6943 7.30993 6.55714 7.32543 6.45697 7.40543L5.33093 8.30666" stroke="white"/>
<path d="M11.3348 12.6697L13.29 7.83003C13.3532 7.72748 13.3519 7.59775 13.2867 7.49649C13.2181 7.39275 13.1014 7.33113 12.9771 7.33305H10.3342C10.1499 7.33305 10.0006 7.48238 10.0006 7.66659V8.33368" stroke="white"/>
</svg>
