<svg width="24" height="24" viewBox="0 0 24 24" fill="none" xmlns="http://www.w3.org/2000/svg">
<path d="M7.19678 11.6797C7.19625 11.2559 7.37826 10.8525 7.69629 10.5724L14.838 4.28944C15.3302 3.87643 16.0621 3.93189 16.4865 4.41435C16.9108 4.89682 16.8724 5.62981 16.4 6.06527L10.1548 11.5593C10.1201 11.5897 10.1002 11.6335 10.1002 11.6797C10.1002 11.7258 10.1201 11.7697 10.1548 11.8001L16.4 17.294C16.7287 17.5699 16.8823 18.0022 16.8012 18.4236C16.7201 18.845 16.4172 19.1894 16.0095 19.3236C15.6019 19.4578 15.1536 19.3607 14.838 19.0699L7.69885 12.7888C7.38005 12.5083 7.19718 12.1043 7.19678 11.6797Z" fill="black"/>
<mask id="mask0" mask-type="alpha" maskUnits="userSpaceOnUse" x="7" y="4" width="10" height="16">
<path d="M7.19678 11.6797C7.19625 11.2559 7.37826 10.8525 7.69629 10.5724L14.838 4.28944C15.3302 3.87643 16.0621 3.93189 16.4865 4.41435C16.9108 4.89682 16.8724 5.62981 16.4 6.06527L10.1548 11.5593C10.1201 11.5897 10.1002 11.6335 10.1002 11.6797C10.1002 11.7258 10.1201 11.7697 10.1548 11.8001L16.4 17.294C16.7287 17.5699 16.8823 18.0022 16.8012 18.4236C16.7201 18.845 16.4172 19.1894 16.0095 19.3236C15.6019 19.4578 15.1536 19.3607 14.838 19.0699L7.69885 12.7888C7.38005 12.5083 7.19718 12.1043 7.19678 11.6797Z" fill="white"/>
</mask>
<g mask="url(#mask0)">
</g>
</svg>
