<svg width="20" height="20" viewBox="0 0 20 20" fill="none" xmlns="http://www.w3.org/2000/svg">
<path d="M16.6665 2.49967H15.8332V0.833008H14.1665V2.49967H5.83317V0.833008H4.1665V2.49967H3.33317C2.4165 2.49967 1.6665 3.24967 1.6665 4.16634V17.4997C1.6665 18.4163 2.4165 19.1663 3.33317 19.1663H16.6665C17.5832 19.1663 18.3332 18.4163 18.3332 17.4997V4.16634C18.3332 3.24967 17.5832 2.49967 16.6665 2.49967ZM16.6665 17.4997H3.33317V6.66634H16.6665V17.4997Z" fill="black"/>
<path d="M8.35707 14.233C9.44608 14.233 10.225 13.6341 10.2226 12.8055C10.225 12.2018 9.84144 11.7709 9.12885 11.6809V11.6431C9.67099 11.546 10.045 11.1625 10.0427 10.618C10.045 9.85328 9.37506 9.25195 8.37127 9.25195C7.37695 9.25195 6.62885 9.83434 6.61464 10.6724H7.59712C7.60896 10.3031 7.9475 10.064 8.36654 10.064C8.78084 10.064 9.05782 10.3149 9.05546 10.6795C9.05782 11.0607 8.73349 11.3187 8.2671 11.3187H7.81493V12.0716H8.2671C8.81635 12.0716 9.15962 12.3462 9.15726 12.7368C9.15962 13.1227 8.82818 13.3878 8.35943 13.3878C7.90726 13.3878 7.56871 13.1511 7.54977 12.796H6.51758C6.53415 13.6435 7.29173 14.233 8.35707 14.233Z" fill="black"/>
<path d="M13.0688 9.31824H12.1053L10.905 10.0782V10.9873L12.0153 10.2913H12.0437V14.1667H13.0688V9.31824Z" fill="black"/>
</svg>
