<svg width="24" height="24" viewBox="0 0 24 24" fill="none" xmlns="http://www.w3.org/2000/svg">
<path fill-rule="evenodd" clip-rule="evenodd" d="M19.0884 13.914L14.0006 19.0039L11.499 19.5042L11.9993 17.0026L17.0898 11.9128C17.3543 11.6479 17.7132 11.499 18.0875 11.499C18.4618 11.499 18.8207 11.6479 19.0851 11.9128L19.0911 11.9181C19.6414 12.4701 19.6402 13.3636 19.0884 13.914Z" stroke="black" stroke-width="1.5"/>
<path d="M9.49531 17.5032H5.49281C4.94018 17.5032 4.49219 17.0552 4.49219 16.5026V5.49574C4.49219 4.94311 4.94018 4.49512 5.49281 4.49512H15.4991C16.0517 4.49512 16.4997 4.94311 16.4997 5.49574V9.99855" stroke="black" stroke-width="1.5"/>
<path d="M9.49512 7.49707H13.4976" stroke="black" stroke-width="1.5"/>
<path d="M7.49414 10.499H13.4979" stroke="black" stroke-width="1.5"/>
<path d="M7.49414 13.501H12.4973" stroke="black" stroke-width="1.5"/>
</svg>
