<svg width="24" height="24" viewBox="0 0 24 24" fill="none" xmlns="http://www.w3.org/2000/svg">
<path fill-rule="evenodd" clip-rule="evenodd" d="M5.82258 9.44863C5.82258 9.90915 5.44925 10.2825 4.98872 10.2825C4.52935 10.281 4.15783 9.908 4.1582 9.44863V5.62424C4.15893 4.81348 4.81503 4.15589 5.62579 4.15332H9.45084C9.91137 4.15332 10.2847 4.52665 10.2847 4.98717C10.2847 5.4477 9.91137 5.82103 9.45084 5.82103H5.98935C5.89724 5.82103 5.82258 5.89569 5.82258 5.9878V9.44863ZM10.0886 12.9401H5.30759C4.77143 12.9401 4.33668 13.3746 4.33631 13.9107V18.6917C4.33631 18.9493 4.43864 19.1964 4.62079 19.3785C4.80294 19.5607 5.04999 19.663 5.30759 19.663H10.0879C10.6243 19.663 11.0592 19.2282 11.0592 18.6917V13.9107C11.0592 13.6533 10.9569 13.4064 10.7749 13.2244C10.5929 13.0424 10.346 12.9401 10.0886 12.9401ZM19.846 5.62424C19.8434 4.81478 19.1879 4.15922 18.3784 4.15666H14.55C14.0895 4.15666 13.7162 4.52998 13.7162 4.99051C13.7162 5.45103 14.0895 5.82436 14.55 5.82436H18.0115C18.1036 5.82436 18.1783 5.89903 18.1783 5.99114V9.44863C18.1783 9.90915 18.5516 10.2825 19.0121 10.2825C19.4727 10.2825 19.846 9.90915 19.846 9.44863V5.62424ZM19.846 14.5485V18.3729C19.8453 19.185 19.1873 19.8434 18.3751 19.8445H14.8689C14.4084 19.8445 14.035 19.4711 14.035 19.0106C14.035 18.5501 14.4084 18.1767 14.8689 18.1767H18.0115C18.1036 18.1767 18.1783 18.1021 18.1783 18.01V14.5485C18.1783 14.088 18.5516 13.7146 19.0121 13.7146C19.4727 13.7146 19.846 14.088 19.846 14.5485Z" fill="black"/>
<mask id="mask0" mask-type="alpha" maskUnits="userSpaceOnUse" x="4" y="4" width="16" height="16">
<path fill-rule="evenodd" clip-rule="evenodd" d="M5.82258 9.44863C5.82258 9.90915 5.44925 10.2825 4.98872 10.2825C4.52935 10.281 4.15783 9.908 4.1582 9.44863V5.62424C4.15893 4.81348 4.81503 4.15589 5.62579 4.15332H9.45084C9.91137 4.15332 10.2847 4.52665 10.2847 4.98717C10.2847 5.4477 9.91137 5.82103 9.45084 5.82103H5.98935C5.89724 5.82103 5.82258 5.89569 5.82258 5.9878V9.44863ZM10.0886 12.9401H5.30759C4.77143 12.9401 4.33668 13.3746 4.33631 13.9107V18.6917C4.33631 18.9493 4.43865 19.1964 4.62079 19.3785C4.80294 19.5607 5.04999 19.663 5.30759 19.663H10.0879C10.6243 19.663 11.0592 19.2282 11.0592 18.6917V13.9107C11.0592 13.6533 10.9569 13.4064 10.7749 13.2244C10.5929 13.0424 10.346 12.9401 10.0886 12.9401ZM19.846 5.62424C19.8434 4.81478 19.1879 4.15922 18.3784 4.15666H14.55C14.0895 4.15666 13.7162 4.52998 13.7162 4.99051C13.7162 5.45103 14.0895 5.82436 14.55 5.82436H18.0115C18.1036 5.82436 18.1783 5.89903 18.1783 5.99114V9.44863C18.1783 9.90915 18.5516 10.2825 19.0121 10.2825C19.4727 10.2825 19.846 9.90915 19.846 9.44863V5.62424ZM19.846 14.5485V18.3729C19.8453 19.185 19.1873 19.8434 18.3751 19.8445H14.8689C14.4084 19.8445 14.035 19.4711 14.035 19.0106C14.035 18.5501 14.4084 18.1767 14.8689 18.1767H18.0115C18.1036 18.1767 18.1783 18.1021 18.1783 18.01V14.5485C18.1783 14.088 18.5516 13.7146 19.0121 13.7146C19.4727 13.7146 19.846 14.088 19.846 14.5485Z" fill="white"/>
</mask>
<g mask="url(#mask0)">
</g>
</svg>
