<svg width="24" height="24" viewBox="0 0 24 24" fill="none" xmlns="http://www.w3.org/2000/svg">
<path d="M11.6797 16.803C11.2559 16.8035 10.8525 16.6215 10.5724 16.3035L4.28944 9.16176C3.87643 8.66955 3.93189 7.93765 4.41435 7.5133C4.89682 7.08894 5.62981 7.12736 6.06527 7.59982L11.5593 13.845C11.5897 13.8797 11.6335 13.8996 11.6797 13.8996C11.7258 13.8996 11.7697 13.8797 11.8001 13.845L17.294 7.59982C17.5699 7.27108 18.0022 7.11753 18.4236 7.1986C18.845 7.27967 19.1894 7.58263 19.3236 7.99025C19.4578 8.39787 19.3607 8.8462 19.0699 9.16176L12.7888 16.3009C12.5083 16.6197 12.1043 16.8026 11.6797 16.803Z" fill="black"/>
<mask id="mask0" mask-type="alpha" maskUnits="userSpaceOnUse" x="4" y="7" width="16" height="10">
<path d="M11.6797 16.803C11.2559 16.8035 10.8525 16.6215 10.5724 16.3035L4.28944 9.16176C3.87643 8.66955 3.93189 7.93765 4.41435 7.5133C4.89682 7.08894 5.62981 7.12736 6.06527 7.59982L11.5593 13.845C11.5897 13.8797 11.6335 13.8996 11.6797 13.8996C11.7258 13.8996 11.7697 13.8797 11.8001 13.845L17.294 7.59982C17.5699 7.27108 18.0022 7.11753 18.4236 7.1986C18.845 7.27967 19.1894 7.58263 19.3236 7.99025C19.4578 8.39787 19.3607 8.8462 19.0699 9.16176L12.7888 16.3009C12.5083 16.6197 12.1043 16.8026 11.6797 16.803Z" fill="white"/>
</mask>
<g mask="url(#mask0)">
</g>
</svg>
