<svg width="20" height="20" viewBox="0 0 20 20" fill="none" xmlns="http://www.w3.org/2000/svg">
<path fill-rule="evenodd" clip-rule="evenodd" d="M9.72211 3.60712H15.5591C16.1731 3.60712 16.6709 4.10489 16.6709 4.71892V15.2811C16.6709 15.8951 16.1731 16.3929 15.5591 16.3929H9.72211C9.10807 16.3929 8.6103 15.8951 8.6103 15.2811V13.6134C8.6103 13.3063 8.85919 13.0575 9.1662 13.0575C9.47322 13.0575 9.72211 13.3063 9.72211 13.6134V15.0031C9.72211 15.1566 9.84655 15.2811 10.0001 15.2811H15.2811C15.4346 15.2811 15.5591 15.1566 15.5591 15.0031V4.99687C15.5591 4.84336 15.4346 4.71892 15.2811 4.71892H10.0001C9.84655 4.71892 9.72211 4.84336 9.72211 4.99687V6.38663C9.72211 6.69365 9.47322 6.94253 9.1662 6.94253C8.85919 6.94253 8.6103 6.69365 8.6103 6.38663V4.71892C8.6103 4.10489 9.10807 3.60712 9.72211 3.60712ZM13.6134 10.2779C13.6134 10.7385 13.2401 11.1118 12.7796 11.1118H7.77645V12.5016C7.77653 12.7066 7.66371 12.8951 7.48293 12.9919C7.30175 13.0872 7.08309 13.0765 6.91202 12.9641L3.5766 10.7405C3.42198 10.6374 3.3291 10.4638 3.3291 10.2779C3.3291 10.0921 3.42198 9.91854 3.5766 9.81544L6.91202 7.59183C7.0826 7.47802 7.30199 7.46736 7.4828 7.5641C7.66361 7.66084 7.77648 7.84927 7.77645 8.05434V9.4441H12.7796C13.2401 9.4441 13.6134 9.81742 13.6134 10.2779Z" fill="black"/>
<mask id="mask0" mask-type="alpha" maskUnits="userSpaceOnUse" x="3" y="3" width="14" height="14">
<path fill-rule="evenodd" clip-rule="evenodd" d="M9.72211 3.60712H15.5591C16.1731 3.60712 16.6709 4.10489 16.6709 4.71892V15.2811C16.6709 15.8951 16.1731 16.3929 15.5591 16.3929H9.72211C9.10807 16.3929 8.6103 15.8951 8.6103 15.2811V13.6134C8.6103 13.3063 8.85919 13.0575 9.1662 13.0575C9.47322 13.0575 9.72211 13.3063 9.72211 13.6134V15.0031C9.72211 15.1566 9.84655 15.2811 10.0001 15.2811H15.2811C15.4346 15.2811 15.5591 15.1566 15.5591 15.0031V4.99687C15.5591 4.84336 15.4346 4.71892 15.2811 4.71892H10.0001C9.84655 4.71892 9.72211 4.84336 9.72211 4.99687V6.38663C9.72211 6.69365 9.47322 6.94253 9.1662 6.94253C8.85919 6.94253 8.6103 6.69365 8.6103 6.38663V4.71892C8.6103 4.10489 9.10807 3.60712 9.72211 3.60712ZM13.6134 10.2779C13.6134 10.7385 13.2401 11.1118 12.7796 11.1118H7.77645V12.5016C7.77653 12.7066 7.66371 12.8951 7.48293 12.9919C7.30175 13.0872 7.08309 13.0765 6.91202 12.9641L3.5766 10.7405C3.42198 10.6374 3.3291 10.4638 3.3291 10.2779C3.3291 10.0921 3.42198 9.91854 3.5766 9.81544L6.91202 7.59183C7.0826 7.47802 7.30199 7.46736 7.4828 7.5641C7.66361 7.66084 7.77648 7.84927 7.77645 8.05434V9.4441H12.7796C13.2401 9.4441 13.6134 9.81742 13.6134 10.2779Z" fill="white"/>
</mask>
<g mask="url(#mask0)">
</g>
</svg>
