<svg width="20" height="20" viewBox="0 0 20 20" fill="none" xmlns="http://www.w3.org/2000/svg">
<path opacity="0.3" d="M18.3327 9.99996C18.3327 14.602 14.6014 18.3333 9.99935 18.3333C5.39727 18.3333 1.66602 14.602 1.66602 9.99996C1.66602 5.39788 5.39727 1.66663 9.99935 1.66663C14.6014 1.66663 18.3327 5.39788 18.3327 9.99996Z" fill="#FF6200"/>
<path d="M9.16732 9.16671H10.834V13.75H9.16732V9.16671ZM11.0423 6.87504C11.0423 7.44962 10.5752 7.91671 10.0007 7.91671C9.42607 7.91671 8.95898 7.44962 8.95898 6.87504C8.95898 6.30046 9.42607 5.83337 10.0007 5.83337C10.5752 5.83337 11.0423 6.30046 11.0423 6.87504Z" fill="#FF6200"/>
</svg>
