<svg width="20" height="20" viewBox="0 0 20 20" fill="none" xmlns="http://www.w3.org/2000/svg">
<path d="M7.91602 8.74478C7.91441 7.65111 8.75785 6.74192 9.84857 6.66159C10.9393 6.58127 11.9068 7.35708 12.0655 8.43918C12.2241 9.52129 11.5199 10.5422 10.452 10.7783C10.1924 10.8295 10.0041 11.0556 10.0007 11.3203V11.939" stroke="black"/>
<path d="M10.0003 13.331C10.0771 13.331 10.1393 13.3932 10.1393 13.47C10.1393 13.5467 10.0771 13.6089 10.0003 13.6089C9.92355 13.6089 9.86133 13.5467 9.86133 13.47C9.86133 13.3932 9.92355 13.331 10.0003 13.331" stroke="black"/>
<path fill-rule="evenodd" clip-rule="evenodd" d="M10.0003 16.3934C13.531 16.3934 16.3932 13.5313 16.3932 10.0006C16.3932 6.46987 13.531 3.60768 10.0003 3.60768C6.46961 3.60768 3.60742 6.46987 3.60742 10.0006C3.60742 13.5313 6.46961 16.3934 10.0003 16.3934Z" stroke="black"/>
</svg>
