<svg width="22" height="22" viewBox="0 0 22 22" fill="none" xmlns="http://www.w3.org/2000/svg">
<path d="M5.57996 15.5862V3.91221C5.57996 2.53063 6.69994 1.41064 8.08152 1.41064H18.5047" stroke="#269FA3"/>
<path d="M8.08142 5.58008H13.0845" stroke="#269FA3"/>
<path d="M8.08142 8.08154H13.0845" stroke="#269FA3"/>
<path d="M8.08142 10.583H13.0845" stroke="#269FA3"/>
<path d="M8.08142 13.0845H13.0845" stroke="#269FA3"/>
<path d="M13.9185 20.5893H3.91221C2.53063 20.5893 1.41064 19.4693 1.41064 18.0877C1.41064 16.7062 2.53063 15.5862 3.91221 15.5862H13.9185C12.5369 15.5862 11.4169 16.7062 11.4169 18.0877C11.4169 19.4693 12.5369 20.5893 13.9185 20.5893C15.3 20.5893 16.42 19.4693 16.42 18.0877V3.49528C16.42 2.34397 17.3533 1.41064 18.5047 1.41064C19.6435 1.44235 20.5542 2.3677 20.5676 3.50695C20.579 3.61025 20.5458 3.71351 20.4764 3.79087C20.407 3.86823 20.308 3.91236 20.204 3.91221H16.42" stroke="#269FA3"/>
</svg>
