<svg width="24" height="24" viewBox="0 0 24 24" fill="none" xmlns="http://www.w3.org/2000/svg">
<path fill-rule="evenodd" clip-rule="evenodd" d="M15.2385 14.0611L19.5939 18.4164C19.9193 18.7422 19.9193 19.27 19.5939 19.5958C19.2659 19.9158 18.7425 19.9158 18.4145 19.5958L14.0591 15.2405C11.466 17.2131 7.7878 16.8392 5.64463 14.3851C3.50147 11.931 3.62629 8.23602 5.93018 5.93213C8.23407 3.62824 11.9291 3.50342 14.3832 5.64659C16.8373 7.78975 17.2112 11.4679 15.2385 14.0611ZM10.3321 5.82924C7.84527 5.82924 5.82929 7.84522 5.82929 10.3321C5.83223 12.8177 7.84649 14.8319 10.3321 14.8349C12.8189 14.8349 14.8349 12.8189 14.8349 10.3321C14.8349 7.84522 12.8189 5.82924 10.3321 5.82924Z" fill="#5E6871"/>
<mask id="mask0" mask-type="alpha" maskUnits="userSpaceOnUse" x="4" y="4" width="16" height="16">
<path fill-rule="evenodd" clip-rule="evenodd" d="M15.2385 14.0611L19.5939 18.4164C19.9193 18.7422 19.9193 19.27 19.5939 19.5958C19.2659 19.9158 18.7425 19.9158 18.4145 19.5958L14.0591 15.2405C11.466 17.2131 7.7878 16.8392 5.64463 14.3851C3.50147 11.931 3.62629 8.23602 5.93018 5.93213C8.23407 3.62824 11.9291 3.50342 14.3832 5.64659C16.8373 7.78975 17.2112 11.4679 15.2385 14.0611ZM10.3321 5.82924C7.84527 5.82924 5.82929 7.84522 5.82929 10.3321C5.83223 12.8177 7.84649 14.8319 10.3321 14.8349C12.8189 14.8349 14.8349 12.8189 14.8349 10.3321C14.8349 7.84522 12.8189 5.82924 10.3321 5.82924Z" fill="white"/>
</mask>
<g mask="url(#mask0)">
</g>
</svg>
