<svg width="117" height="37" viewBox="0 0 117 37" fill="none" xmlns="http://www.w3.org/2000/svg">
<rect width="117" height="30" fill="#394A64"/>
<path d="M110 37V30H117L110 37Z" fill="#112138"/>
<path d="M31.106 7.4L26.93 20H24.446L21.332 10.676L18.164 20H15.662L11.486 7.4H13.916L17.048 16.976L20.306 7.4H22.466L25.652 17.03L28.874 7.4H31.106ZM36.2156 20.126C35.2436 20.126 34.3676 19.916 33.5876 19.496C32.8076 19.076 32.1956 18.494 31.7516 17.75C31.3196 16.994 31.1036 16.142 31.1036 15.194C31.1036 14.246 31.3196 13.4 31.7516 12.656C32.1956 11.912 32.8076 11.33 33.5876 10.91C34.3676 10.49 35.2436 10.28 36.2156 10.28C37.1996 10.28 38.0816 10.49 38.8616 10.91C39.6416 11.33 40.2476 11.912 40.6796 12.656C41.1236 13.4 41.3456 14.246 41.3456 15.194C41.3456 16.142 41.1236 16.994 40.6796 17.75C40.2476 18.494 39.6416 19.076 38.8616 19.496C38.0816 19.916 37.1996 20.126 36.2156 20.126ZM36.2156 18.2C37.0436 18.2 37.7276 17.924 38.2676 17.372C38.8076 16.82 39.0776 16.094 39.0776 15.194C39.0776 14.294 38.8076 13.568 38.2676 13.016C37.7276 12.464 37.0436 12.188 36.2156 12.188C35.3876 12.188 34.7036 12.464 34.1636 13.016C33.6356 13.568 33.3716 14.294 33.3716 15.194C33.3716 16.094 33.6356 16.82 34.1636 17.372C34.7036 17.924 35.3876 18.2 36.2156 18.2ZM45.4592 11.792C46.1072 10.784 47.2472 10.28 48.8792 10.28V12.422C48.6872 12.386 48.5132 12.368 48.3572 12.368C47.4812 12.368 46.7972 12.626 46.3052 13.142C45.8132 13.646 45.5672 14.378 45.5672 15.338V20H43.3172V10.388H45.4592V11.792ZM54.5319 15.878L52.8579 17.462V20H50.6079V6.644H52.8579V14.708L57.5199 10.388H60.2199L56.2059 14.42L60.5979 20H57.8619L54.5319 15.878ZM64.5424 20.126C63.7624 20.126 63.0004 20.024 62.2564 19.82C61.5124 19.616 60.9184 19.358 60.4744 19.046L61.3384 17.336C61.7704 17.624 62.2864 17.858 62.8864 18.038C63.4984 18.206 64.0984 18.29 64.6864 18.29C66.0304 18.29 66.7024 17.936 66.7024 17.228C66.7024 16.892 66.5284 16.658 66.1804 16.526C65.8444 16.394 65.2984 16.268 64.5424 16.148C63.7504 16.028 63.1024 15.89 62.5984 15.734C62.1064 15.578 61.6744 15.308 61.3024 14.924C60.9424 14.528 60.7624 13.982 60.7624 13.286C60.7624 12.374 61.1404 11.648 61.8964 11.108C62.6644 10.556 63.6964 10.28 64.9924 10.28C65.6524 10.28 66.3124 10.358 66.9724 10.514C67.6324 10.658 68.1724 10.856 68.5924 11.108L67.7284 12.818C66.9124 12.338 65.9944 12.098 64.9744 12.098C64.3144 12.098 63.8104 12.2 63.4624 12.404C63.1264 12.596 62.9584 12.854 62.9584 13.178C62.9584 13.538 63.1384 13.796 63.4984 13.952C63.8704 14.096 64.4404 14.234 65.2084 14.366C65.9764 14.486 66.6064 14.624 67.0984 14.78C67.5904 14.936 68.0104 15.2 68.3584 15.572C68.7184 15.944 68.8984 16.472 68.8984 17.156C68.8984 18.056 68.5084 18.776 67.7284 19.316C66.9484 19.856 65.8864 20.126 64.5424 20.126ZM76.1101 10.28C77.3221 10.28 78.2941 10.634 79.0261 11.342C79.7581 12.05 80.1241 13.1 80.1241 14.492V20H77.8741V14.78C77.8741 13.94 77.6761 13.31 77.2801 12.89C76.8841 12.458 76.3201 12.242 75.5881 12.242C74.7601 12.242 74.1061 12.494 73.6261 12.998C73.1461 13.49 72.9061 14.204 72.9061 15.14V20H70.6561V6.644H72.9061V11.504C73.2781 11.108 73.7341 10.808 74.2741 10.604C74.8261 10.388 75.4381 10.28 76.1101 10.28ZM87.2062 20.126C86.2342 20.126 85.3582 19.916 84.5782 19.496C83.7982 19.076 83.1862 18.494 82.7422 17.75C82.3102 16.994 82.0942 16.142 82.0942 15.194C82.0942 14.246 82.3102 13.4 82.7422 12.656C83.1862 11.912 83.7982 11.33 84.5782 10.91C85.3582 10.49 86.2342 10.28 87.2062 10.28C88.1902 10.28 89.0722 10.49 89.8522 10.91C90.6322 11.33 91.2382 11.912 91.6702 12.656C92.1142 13.4 92.3362 14.246 92.3362 15.194C92.3362 16.142 92.1142 16.994 91.6702 17.75C91.2382 18.494 90.6322 19.076 89.8522 19.496C89.0722 19.916 88.1902 20.126 87.2062 20.126ZM87.2062 18.2C88.0342 18.2 88.7182 17.924 89.2582 17.372C89.7982 16.82 90.0682 16.094 90.0682 15.194C90.0682 14.294 89.7982 13.568 89.2582 13.016C88.7182 12.464 88.0342 12.188 87.2062 12.188C86.3782 12.188 85.6942 12.464 85.1542 13.016C84.6262 13.568 84.3622 14.294 84.3622 15.194C84.3622 16.094 84.6262 16.82 85.1542 17.372C85.6942 17.924 86.3782 18.2 87.2062 18.2ZM99.6358 10.28C100.572 10.28 101.406 10.484 102.138 10.892C102.882 11.3 103.464 11.876 103.884 12.62C104.304 13.364 104.514 14.222 104.514 15.194C104.514 16.166 104.304 17.03 103.884 17.786C103.464 18.53 102.882 19.106 102.138 19.514C101.406 19.922 100.572 20.126 99.6358 20.126C98.3398 20.126 97.3138 19.694 96.5578 18.83V23.492H94.3078V10.388H96.4498V11.648C96.8218 11.192 97.2778 10.85 97.8178 10.622C98.3698 10.394 98.9758 10.28 99.6358 10.28ZM99.3838 18.2C100.212 18.2 100.89 17.924 101.418 17.372C101.958 16.82 102.228 16.094 102.228 15.194C102.228 14.294 101.958 13.568 101.418 13.016C100.89 12.464 100.212 12.188 99.3838 12.188C98.8438 12.188 98.3578 12.314 97.9258 12.566C97.4938 12.806 97.1518 13.154 96.8998 13.61C96.6478 14.066 96.5218 14.594 96.5218 15.194C96.5218 15.794 96.6478 16.322 96.8998 16.778C97.1518 17.234 97.4938 17.588 97.9258 17.84C98.3578 18.08 98.8438 18.2 99.3838 18.2Z" fill="white"/>
</svg>
